<svg width="136" height="130" viewBox="0 0 136 130" fill="none" xmlns="http://www.w3.org/2000/svg">
<path d="M131.985 65.3926C131.985 100.845 102.439 129.585 65.9927 129.585C29.546 129.585 8.39233e-05 100.845 8.39233e-05 65.3926C8.39233e-05 29.9399 29.546 1.19983 65.9927 1.19983C102.439 1.19983 131.985 29.9399 131.985 65.3926ZM39.5956 65.3926C39.5956 79.5737 51.414 91.0698 65.9927 91.0698C80.5714 91.0698 92.3897 79.5737 92.3897 65.3926C92.3897 51.2116 80.5714 39.7155 65.9927 39.7155C51.414 39.7155 39.5956 51.2116 39.5956 65.3926Z" fill="#C08450"/>
<path d="M135.585 64.1928C135.585 99.6455 106.039 128.386 69.5923 128.386C33.1456 128.386 3.59969 99.6455 3.59969 64.1928C3.59969 28.7401 33.1456 0 69.5923 0C106.039 0 135.585 28.7401 135.585 64.1928ZM43.1953 64.1928C43.1953 78.3739 55.0136 89.8699 69.5923 89.8699C84.171 89.8699 95.9893 78.3739 95.9893 64.1928C95.9893 50.0117 84.171 38.5157 69.5923 38.5157C55.0136 38.5157 43.1953 50.0117 43.1953 64.1928Z" fill="#DC965A"/>
</svg>
